<svg width="30" height="30" viewBox="0 0 30 30" fill="none" xmlns="http://www.w3.org/2000/svg">
<path id="Vector" fill-rule="evenodd" clip-rule="evenodd" d="M1.59652 16.998V27.636C1.59652 28.9413 2.6346 30 3.91533 30C5.69544 30 8.60304 30 10.3835 30C10.9983 30 11.5882 29.7507 12.023 29.3074C12.4578 28.8641 12.7023 28.2627 12.7023 27.636V19.3295C12.7023 17.9935 13.7645 16.9106 15.0746 16.9106H15.0753C16.3857 16.9106 17.4479 17.9935 17.4479 19.3295V27.636C17.4479 28.2627 17.6921 28.8641 18.1269 29.3074C18.5617 29.7507 19.1516 30 19.7667 30C21.5131 30 24.3383 30 26.0847 30C27.3654 30 28.4035 28.9413 28.4035 27.636V16.9976C29.0472 16.8985 29.6026 16.4632 29.8571 15.8376C30.1476 15.1227 29.987 14.2996 29.4501 13.7523L16.6395 0.692463C15.7342 -0.230821 14.2658 -0.230821 13.3605 0.692463C10.7033 3.40142 3.88009 10.3576 0.549899 13.7523C0.013047 14.2996 -0.1476 15.1231 0.1429 15.8379C0.397042 16.4636 0.952816 16.8989 1.59652 16.998ZM15.5465 1.80676L28.3571 14.8666C28.4517 14.9631 28.4799 15.1083 28.4287 15.2347C28.3775 15.3606 28.2566 15.4431 28.1226 15.4431H28.1215C27.4236 15.4431 26.8579 16.0199 26.8579 16.7313V27.6356C26.8579 28.071 26.5117 28.4239 26.0847 28.4239C24.3383 28.4239 21.5131 28.4239 19.7667 28.4239C19.5616 28.4239 19.3649 28.3407 19.2199 28.1931C19.0752 28.0453 18.9936 27.8448 18.9936 27.636V19.3295C18.9936 17.1232 17.2394 15.3345 15.0753 15.3345C15.0749 15.3345 15.0749 15.3345 15.0746 15.3345C12.9108 15.3345 11.1563 17.1232 11.1563 19.3295C11.1563 21.9658 11.1563 25.5886 11.1563 27.636C11.1563 27.8448 11.0751 28.0453 10.93 28.1931C10.785 28.3407 10.5883 28.4239 10.3835 28.4239C8.60304 28.4239 5.69544 28.4239 3.91533 28.4239C3.4883 28.4239 3.14215 28.071 3.14215 27.636C3.14215 27.6356 3.14215 16.7321 3.14215 16.7321C3.14215 16.0203 2.57636 15.4434 1.87774 15.4434C1.74381 15.4434 1.62249 15.361 1.57129 15.235C1.52009 15.1087 1.54829 14.9635 1.64289 14.867L14.4535 1.80676C14.7551 1.49925 15.2449 1.49925 15.5465 1.80676Z" fill="#CBE4DE"/>
</svg>
