<svg width="25" height="25" viewBox="0 0 25 25" fill="none" xmlns="http://www.w3.org/2000/svg">
<g id="Group 43">
<g id="Group">
<path id="Vector" d="M12.5 2.26471C15.8235 2.26471 16.2353 2.26471 17.5588 2.32353C18.7647 2.38235 19.4412 2.58824 19.8824 2.76471C20.4706 3 20.8824 3.26471 21.3235 3.70588C21.7647 4.14706 22.0294 4.55882 22.2647 5.14706C22.4412 5.58824 22.6471 6.23529 22.7059 7.47059C22.7647 8.79412 22.7647 9.17647 22.7647 12.5294C22.7647 15.8824 22.7647 16.2647 22.7059 17.5882C22.6471 18.7941 22.4412 19.4706 22.2647 19.9118C22.0294 20.5 21.7647 20.9118 21.3235 21.3529C20.8824 21.7941 20.4706 22.0588 19.8824 22.2941C19.4412 22.4706 18.7941 22.6765 17.5588 22.7353C16.2353 22.7941 15.8529 22.7941 12.5 22.7941C9.17647 22.7941 8.76471 22.7941 7.44118 22.7353C6.23529 22.6765 5.55882 22.4706 5.11765 22.2941C4.52941 22.0588 4.11765 21.7941 3.67647 21.3529C3.23529 20.9118 2.97059 20.5 2.73529 19.9118C2.55882 19.4706 2.35294 18.8235 2.29412 17.5882C2.23529 16.2647 2.23529 15.8824 2.23529 12.5294C2.23529 9.17647 2.23529 8.79412 2.29412 7.47059C2.35294 6.26471 2.55882 5.58824 2.73529 5.14706C2.97059 4.55882 3.23529 4.14706 3.67647 3.70588C4.11765 3.26471 4.52941 3 5.11765 2.76471C5.55882 2.58824 6.20588 2.38235 7.44118 2.32353C8.76471 2.26471 9.17647 2.26471 12.5 2.26471ZM12.5 0C9.11765 0 8.67647 -2.279e-07 7.35294 0.0882351C6.02941 0.147059 5.11765 0.352941 4.32353 0.67647C3.5 1 2.79412 1.41176 2.11765 2.11765C1.41176 2.82353 1 3.5 0.67647 4.32353C0.352941 5.11765 0.147059 6.02941 0.0882351 7.35294C-2.279e-07 8.67647 0 9.11765 0 12.5C0 15.8824 -2.279e-07 16.3235 0.0882351 17.6471C0.147059 18.9706 0.352941 19.8824 0.67647 20.6765C1 21.5 1.41176 22.2059 2.11765 22.8824C2.82353 23.5882 3.5 24 4.32353 24.3235C5.11765 24.6471 6.02941 24.8529 7.35294 24.9118C8.67647 24.9706 9.11765 25 12.5 25C15.8824 25 16.3235 25 17.6471 24.9118C18.9706 24.8529 19.8824 24.6471 20.6765 24.3235C21.5 24 22.2059 23.5882 22.8824 22.8824C23.5882 22.1765 24 21.5 24.3235 20.6765C24.6471 19.8824 24.8529 18.9706 24.9118 17.6471C24.9706 16.3235 25 15.8824 25 12.5C25 9.11765 25 8.67647 24.9118 7.35294C24.8529 6.02941 24.6471 5.11765 24.3235 4.32353C24 3.5 23.5882 2.79412 22.8824 2.11765C22.1765 1.41176 21.5 1 20.6765 0.67647C19.8824 0.352941 18.9706 0.147059 17.6471 0.0882351C16.3235 -2.279e-07 15.8824 0 12.5 0Z" fill="white"/>
<path id="Vector_2" d="M12.5 6.08838C8.9412 6.08838 6.08826 8.97073 6.08826 12.5001C6.08826 16.0296 8.97061 18.9119 12.5 18.9119C16.0588 18.9119 18.9118 16.0296 18.9118 12.5001C18.9118 8.97073 16.0588 6.08838 12.5 6.08838ZM12.5 16.6766C10.2059 16.6766 8.32355 14.8237 8.32355 12.5001C8.32355 10.1766 10.1765 8.32367 12.5 8.32367C14.8236 8.32367 16.6765 10.1766 16.6765 12.5001C16.6765 14.8237 14.7941 16.6766 12.5 16.6766Z" fill="white"/>
<path id="Vector_3" d="M19.1765 7.32349C20.0049 7.32349 20.6765 6.65191 20.6765 5.82349C20.6765 4.99506 20.0049 4.32349 19.1765 4.32349C18.3481 4.32349 17.6765 4.99506 17.6765 5.82349C17.6765 6.65191 18.3481 7.32349 19.1765 7.32349Z" fill="white"/>
</g>
</g>
</svg>
