<svg width="25" height="25" viewBox="0 0 25 25" fill="none" xmlns="http://www.w3.org/2000/svg">
<g id="Frame" clip-path="url(#clip0_37_2142)">
<g id="Group">
<path id="Vector" d="M12.5 25C19.4036 25 25 19.4036 25 12.5C25 5.59644 19.4036 0 12.5 0C5.59644 0 0 5.59644 0 12.5C0 19.4036 5.59644 25 12.5 25Z" fill="white"/>
<g id="Group_2">
<g id="Group_3">
<path id="Vector_2" d="M13.4629 10.7965C13.6666 10.5743 13.8333 10.3336 14.0555 10.1299C14.7037 9.51875 15.4629 9.20393 16.3703 9.22245C16.8703 9.22245 17.3518 9.25949 17.8148 9.40764C18.9074 9.72245 19.537 10.4632 19.8333 11.5373C20.0555 12.3336 20.0926 13.1484 20.1111 13.9632C20.1111 15.6854 20.1111 17.4076 20.1111 19.1484C20.1111 19.315 20.074 19.3521 19.9074 19.3521C19.0185 19.3521 18.1296 19.3521 17.2407 19.3521C17.0926 19.3521 17.0555 19.2965 17.0555 19.1484C17.0555 17.5002 17.0555 15.8706 17.0555 14.2225C17.0555 13.815 17.037 13.4076 16.9074 13.0002C16.7037 12.2595 16.1666 11.8891 15.3889 11.9262C14.3333 11.9817 13.7778 12.5002 13.6481 13.5743C13.6111 13.8336 13.5926 14.0928 13.5926 14.3521C13.5926 15.9447 13.5926 17.5558 13.5926 19.1484C13.5926 19.315 13.5555 19.3521 13.3889 19.3521C12.5 19.3521 11.5926 19.3521 10.7037 19.3521C10.5555 19.3521 10.5185 19.315 10.5185 19.1669C10.5185 16.0002 10.5185 12.8336 10.5185 9.6669C10.5185 9.51875 10.574 9.48171 10.7222 9.48171C11.574 9.48171 12.4259 9.48171 13.2778 9.48171C13.4259 9.48171 13.4815 9.53727 13.4629 9.68542C13.4629 10.0373 13.4629 10.4076 13.4629 10.7965Z" fill="#1A2027"/>
<path id="Vector_3" d="M8.59257 14.4076C8.59257 15.9817 8.59257 17.5372 8.59257 19.1113C8.59257 19.2779 8.55553 19.3335 8.37035 19.3335C7.48146 19.315 6.59257 19.3335 5.70368 19.3335C5.55553 19.3335 5.51849 19.2965 5.51849 19.1483C5.51849 15.9817 5.51849 12.815 5.51849 9.64832C5.51849 9.51869 5.55553 9.46313 5.68516 9.46313C6.59257 9.46313 7.48146 9.46313 8.38886 9.46313C8.55553 9.46313 8.59257 9.53721 8.59257 9.68536C8.59257 11.2594 8.59257 12.8335 8.59257 14.4076Z" fill="#1A2027"/>
<path id="Vector_4" d="M8.83333 6.31492C8.83333 7.2964 8.03703 8.0927 7.05555 8.0927C6.09259 8.0927 5.27777 7.2964 5.27777 6.33344C5.27777 5.35196 6.07407 4.55566 7.05555 4.55566C8.03703 4.55566 8.83333 5.35196 8.83333 6.31492Z" fill="#1A2027"/>
</g>
</g>
</g>
</g>
<defs>
<clipPath id="clip0_37_2142">
<rect width="25" height="25" fill="white"/>
</clipPath>
</defs>
</svg>
