<svg width="30" height="20" viewBox="0 0 30 20" fill="none" xmlns="http://www.w3.org/2000/svg">
<g id="Group 13">
<g id="Group">
<g id="Group_2">
<path id="Vector" d="M29.1212 0H0.878788C0.393939 0 0 0.40625 0 0.90625V19.0938C0 19.5938 0.393939 20 0.878788 20H29.1212C29.6061 20 30 19.5938 30 19.0938V0.90625C30 0.40625 29.6061 0 29.1212 0ZM28.0909 1.8125C27.9394 2.28125 27.6364 2.71875 27.2424 3.03125L16.1212 12.3125C15.4848 12.8438 14.5455 12.8438 13.9091 12.3125L2.75758 3.03125C2.36364 2.71875 2.09091 2.28125 1.90909 1.8125H28.0909ZM1.75758 4.53125L8.30303 10L1.75758 15.4688V4.53125ZM1.90909 18.1875C2.06061 17.7188 2.36364 17.2812 2.72727 16.9688L9.69697 11.1562L12.7879 13.75C14.0909 14.8438 15.9394 14.8438 17.2121 13.75L20.303 11.1875L27.2727 17C27.6667 17.3125 27.9394 17.75 28.1212 18.2188L1.90909 18.1875ZM28.2424 15.4688L21.697 10L28.2424 4.53125V15.4688Z" fill="#CBE4DE"/>
</g>
</g>
</g>
</svg>
