<svg width="30" height="30" viewBox="0 0 30 30" fill="none" xmlns="http://www.w3.org/2000/svg">
<g id="Group">
<g id="Group_2">
<g id="Group_3">
<path id="Vector" fill-rule="evenodd" clip-rule="evenodd" d="M6.98703 0.594098C6.60721 0.214253 6.09154 0 5.55358 0C5.01561 0 4.49994 0.214253 4.12012 0.594098C3.47199 1.24227 2.59002 2.12429 1.78172 2.93197C0.223913 4.49056 -0.370148 6.76962 0.229997 8.89054C0.230673 8.89189 0.230672 8.89257 0.231348 8.89392C1.22348 12.3254 3.38751 17.8304 7.77911 22.2223C12.1707 26.6142 17.6754 28.7784 21.1073 29.7692C21.1087 29.7692 21.1093 29.7699 21.1107 29.7699C23.2308 30.3701 25.5091 29.7766 27.0669 28.2187C27.8758 27.4117 28.7578 26.5297 29.4059 25.8815C29.7864 25.5017 30 24.986 30 24.448C30 23.91 29.7858 23.3943 29.4059 23.0144C28.1198 21.7282 25.8449 19.4532 24.5588 18.167C24.179 17.7872 23.6633 17.5729 23.1254 17.5729C22.5874 17.5729 22.0717 17.7865 21.6919 18.167L19.1663 20.6928C18.994 20.8651 18.7419 20.9314 18.508 20.8665C17.3138 20.4224 14.9423 19.364 12.7898 17.2113C10.6433 15.0647 9.58495 12.6998 9.15242 11.5096C9.0801 11.2663 9.14431 11.0135 9.31664 10.8418C9.318 10.8398 9.32002 10.8378 9.32205 10.8364C9.9695 10.174 11.0515 9.09128 11.8341 8.30861C12.2146 7.92877 12.4282 7.41307 12.4282 6.87507C12.4282 6.33706 12.214 5.82136 11.8341 5.44152L6.98703 0.594098ZM6.03139 1.5498L10.8785 6.39722C11.0049 6.52361 11.0765 6.69596 11.0765 6.87507C11.0765 7.05417 11.0049 7.22652 10.8785 7.35291C10.0925 8.13829 9.00711 9.22443 8.35628 9.89017C7.82845 10.4207 7.63854 11.2007 7.86224 11.9158C7.86562 11.9253 7.86832 11.934 7.8717 11.9428C8.33533 13.2277 9.48425 15.8177 11.8341 18.167C14.182 20.515 16.7691 21.664 18.0492 22.1385C18.06 22.1426 18.0708 22.1459 18.0816 22.15C18.802 22.3757 19.5887 22.1824 20.1226 21.6478L22.6476 19.1227C22.7739 18.9963 22.9463 18.9247 23.1254 18.9247C23.3045 18.9247 23.4768 18.9963 23.6032 19.1227L28.4503 23.9701C28.5767 24.0965 28.6483 24.2689 28.6483 24.448C28.6483 24.6271 28.5767 24.7994 28.4503 24.9258C27.8022 25.5733 26.9209 26.4554 26.1119 27.2624L26.1112 27.263C24.9001 28.4742 23.1281 28.9359 21.4797 28.4695C18.1992 27.5226 12.9324 25.4638 8.73475 21.2666C4.53779 17.0687 2.47919 11.8016 1.53031 8.52084C1.06398 6.87169 1.52625 5.09952 2.73803 3.88834L5.07576 1.5498C5.20214 1.42341 5.37448 1.35176 5.55358 1.35176C5.73267 1.35176 5.90501 1.42341 6.03139 1.5498Z" fill="#CBE4DE"/>
</g>
</g>
</g>
</svg>
