<svg width="25" height="27" viewBox="0 0 25 27" fill="none" xmlns="http://www.w3.org/2000/svg">
<g id="Group 44">
<path id="Vector" d="M24.9014 6.5863C24.9014 6.46205 24.9014 6.46205 24.7699 6.46205C24.4413 6.46205 24.1126 6.43098 23.8168 6.36886C22.6336 6.21355 18.8869 4.34979 18.2295 1.30566C18.2295 1.24353 18.0652 0.498028 18.0652 0.15634C18.0652 0.00102688 18.0652 0.00102688 17.9009 0.00102688C17.868 0.00102688 17.8351 0.00102688 17.8023 0.00102688C16.3233 0.00102688 14.8443 0.00102688 13.3982 0.00102688C13.1024 0.00102688 13.1353 -0.0300359 13.1353 0.249527C13.1353 6.27567 13.1353 12.3329 13.1353 18.359C13.1353 18.5765 13.1353 18.7939 13.1024 19.0424C12.8723 20.2228 12.2479 21.1236 11.1633 21.7448C10.243 22.2729 9.22416 22.4282 8.17244 22.2418C7.84378 22.1797 7.51511 22.0555 7.18645 21.9312C7.15358 21.9002 7.12072 21.9002 7.12072 21.8691C7.02212 21.7759 6.89065 21.7138 6.79205 21.6517C5.41167 20.7508 4.78721 19.5083 4.9844 17.9552C5.1816 16.371 6.13473 15.3149 7.71231 14.7558C8.17244 14.6004 8.66543 14.5383 9.19129 14.5383C9.51996 14.5694 9.84862 14.6004 10.1444 14.6626C10.243 14.6936 10.3088 14.6626 10.3088 14.5383C10.3088 14.5073 10.3088 14.4762 10.3088 14.4141C10.3088 13.3269 10.2759 10.9661 10.2759 10.9661C10.2759 10.6555 10.2759 10.3449 10.2759 10.0342C10.2759 9.94106 10.243 9.94106 10.1444 9.91C9.55282 9.84787 8.96123 9.81681 8.36964 9.87893C7.54798 9.94106 6.75919 10.0964 5.97039 10.3759C4.72147 10.8108 3.63688 11.4631 2.68376 12.3329C1.8621 13.0784 1.23764 13.9481 0.777514 14.9111C0.317385 15.843 0.087321 16.837 0.0215883 17.831C-0.011278 18.2658 -0.0112779 18.7318 0.0544548 19.1666C0.120187 19.7879 0.251652 20.3781 0.44885 20.9683C1.00758 22.6457 2.0593 24.0435 3.50542 25.1307C3.66975 25.2549 3.80122 25.3792 3.96555 25.4413C4.03128 25.5034 4.12988 25.5655 4.19561 25.6277C4.42568 25.783 4.68861 25.9383 4.95154 26.0625C6.59485 26.8391 8.3039 27.1497 10.1444 26.9323C12.5108 26.6527 14.4828 25.6587 16.0275 23.9813C17.4736 22.3661 18.1967 20.5023 18.1967 18.3901C18.2295 15.377 18.1967 12.3639 18.1967 9.38193C18.1967 9.31981 18.1638 9.19556 18.2295 9.16449C18.2953 9.13343 18.361 9.22662 18.4267 9.25768C19.6099 10.0032 20.8917 10.5312 22.2721 10.8108C23.0609 10.9972 23.8825 11.0904 24.7042 11.0904C24.9671 11.0904 25 11.0904 25 10.8419C24.9671 9.78575 24.9014 6.86586 24.9014 6.5863Z" fill="white"/>
</g>
</svg>
