<svg width="35" height="25" viewBox="0 0 35 25" fill="none" xmlns="http://www.w3.org/2000/svg">
<path id="Vector" d="M34.2239 3.87658C33.8359 2.33386 32.633 1.14715 31.1197 0.712025C28.4035 -2.82933e-07 17.5 0 17.5 0C17.5 0 6.59645 6.13023e-07 3.84146 0.751583C2.32816 1.14715 1.16408 2.37342 0.73725 3.91614C-1.38769e-07 6.68513 0 12.5 0 12.5C0 12.5 -1.38769e-07 18.2753 0.73725 21.0839C1.12528 22.6266 2.32816 23.8133 3.84146 24.2484C6.55765 25 17.5 25 17.5 25C17.5 25 28.4035 25 31.1585 24.2484C32.6718 23.8529 33.8359 22.6266 34.2627 21.0839C35 18.3149 35 12.5 35 12.5C35 12.5 34.9612 6.68513 34.2239 3.87658ZM14.0078 17.8006V7.12025L23.0876 12.4604L14.0078 17.8006Z" fill="white"/>
</svg>
